:SAMPLES-PER-SECOND 30
:FULLY-SPECIFIED
:DEGREES
564
root  2.75634 40.9691 -1.45715 -168.427 -88.5945 168.413
RightUpLeg  0.0482493 -9.08986 -7.53208
RightLeg  3.45005 -7.85747 3.17432
RightFoot  -1.45438 -0.147563 1.61042
RightToes  0.000482159 0.542163 -0.142577
Spine  6.9335 0.833572 1.23096
Spine1  -1.77418 1.12841 -1.1414
HEad  -8.25285 1.08862 0.77656
LeftShoulder1  0.646151 -2.28081 -3.06339
LeftArm  -23.9925 4.9928 -0.814997
LeftForeArm  6.48241 -3.02245 0.0546429
LeftHand  -0.25398 0.0180481 5.50724
RightShoulder  0.567747 1.1218 4.38517
RightArm  -25.8924 2.51191 -2.75715
RightForeArm  -8.58644 7.23338 3.51313
RightHand  -1.94727 5.74383 -20.4832
LeftUpLeg  0.340257 3.05949 -0.600295
LeftLeg  1.36435 4.93904 -4.2334
LeftFoot  -2.47611 -0.189205 2.63281
LeftToes  1.06248e-005 4.65854e-005 -8.185e-006
565
root  2.7681 40.9731 -1.53975 -164.056 -88.5839 164.069
RightUpLeg  0.0267857 -9.07568 -7.49624
RightLeg  3.40401 -7.93518 3.16401
RightFoot  -1.4721 -0.141913 1.53635
RightToes  0.000482159 0.542163 -0.142577
Spine  6.85127 0.888297 1.1905
Spine1  -1.72506 1.21328 -1.30499
HEad  -8.47347 0.888712 0.781956
LeftShoulder1  0.698993 -2.53194 -3.52628
LeftArm  -22.6894 4.53677 -0.904297
LeftForeArm  5.73719 -1.45074 -0.285036
LeftHand  -0.25398 0.0180481 5.50724
RightShoulder  0.581919 1.22841 4.41155
RightArm  -25.3245 2.62895 -2.22598
RightForeArm  -6.29962 6.01378 3.29522
RightHand  -1.91609 5.81147 -20.0501
LeftUpLeg  0.336917 2.97668 -0.642746
LeftLeg  1.23677 5.05872 -4.16939
LeftFoot  -2.33964 -0.190895 2.60801
LeftToes  1.06248e-005 4.65854e-005 -8.185e-006
566
root  2.76597 40.9771 -1.63092 -160.428 -88.6014 160.532
RightUpLeg  -0.0500722 -9.01569 -7.39594
RightLeg  3.37387 -8.08798 3.13351
RightFoot  -1.50133 -0.135739 1.45577
RightToes  0.000482159 0.542163 -0.142577
Spine  6.74593 0.977116 1.13004
Spine1  -1.82766 1.32422 -1.43394
HEad  -8.39231 0.54842 0.879899
LeftShoulder1  0.770184 -2.8191 -4.21
LeftArm  -21.8025 4.21724 -0.919138
LeftForeArm  4.85121 -0.250708 -0.527487
LeftHand  -0.25398 0.0180481 5.50724
RightShoulder  0.588474 1.23537 4.54712
RightArm  -24.3885 2.69392 -1.61423
RightForeArm  -3.86361 4.52349 3.13324
RightHand  -1.7996 5.58287 -19.2454
LeftUpLeg  0.223637 2.806 -0.699481
LeftLeg  1.22156 5.238 -3.98386
LeftFoot  -2.24044 -0.187383 2.52771
LeftToes  1.06248e-005 4.65854e-005 -8.185e-006
567
root  2.75767 40.98 -1.7232 -158.981 -88.6042 159.14
RightUpLeg  -0.0975279 -8.95522 -7.26839
RightLeg  3.38631 -8.1634 3.1291
RightFoot  -1.5316 -0.127826 1.3672
RightToes  0.000482159 0.542163 -0.142577
Spine  6.61637 1.0426 1.0359
Spine1  -1.83473 1.40027 -1.49962
HEad  -8.33116 0.301301 1.02745
LeftShoulder1  0.801252 -2.85371 -4.68489
LeftArm  -21.2186 4.0585 -1.1738
LeftForeArm  4.12493 0.661424 -0.681075
LeftHand  -0.25398 0.0180481 5.50724
RightShoulder  0.620415 1.34109 4.98363
RightArm  -23.3722 2.82316 -1.2997
RightForeArm  -1.73191 2.86488 3.02282
RightHand  -1.64495 5.18685 -18.2819
LeftUpLeg  0.136045 2.67612 -0.687871
LeftLeg  1.28465 5.37522 -3.79374
LeftFoot  -2.20417 -0.179717 2.39043
LeftToes  1.06248e-005 4.65854e-005 -8.185e-006
568
root  2.74547 40.9815 -1.81409 -157.992 -88.5948 158.136
RightUpLeg  -0.0959452 -8.93388 -7.16762
RightLeg  3.4688 -8.18736 3.14958
RightFoot  -1.63249 -0.11594 1.23199
RightToes  0.000482159 0.542163 -0.142577
Spine  6.41302 1.06693 0.878182
Spine1  -1.60896 1.41705 -1.45694
HEad  -8.42345 0.239205 1.02752
LeftShoulder1  0.794265 -2.68393 -4.94188
LeftArm  -20.7184 4.14123 -1.57446
LeftForeArm  3.71669 1.1983 -0.82216
LeftHand  -0.25398 0.0180481 5.50724
RightShoulder  0.665992 1.51912 5.49838
RightArm  -22.7234 2.92956 -1.18578
RightForeArm  -0.342521 1.34335 2.89535
RightHand  -1.56634 5.01866 -17.7058
LeftUpLeg  0.147625 2.68118 -0.598859
LeftLeg  1.32841 5.37031 -3.73356
LeftFoot  -2.19792 -0.174838 2.30311
LeftToes  1.06248e-005 4.65854e-005 -8.185e-006
569
root  2.72575 40.9821 -1.90567 -155.575 -88.6475 155.679
RightUpLeg  -0.058435 -8.92312 -7.07902
RightLeg  3.58788 -8.29925 3.16147
RightFoot  -1.78879 -0.103032 1.08351
RightToes  0.000482159 0.542163 -0.142577
Spine  6.25827 1.06145 0.715244
Spine1  -1.46082 1.39552 -1.37639
HEad  -8.46407 0.27096 0.826737
LeftShoulder1  0.796457 -2.63073 -5.1054
LeftArm  -20.2753 4.53558 -1.81332
LeftForeArm  3.53262 1.32785 -0.944404
LeftHand  -0.25398 0.0180481 5.50724
RightShoulder  0.683659 1.54779 5.8076
RightArm  -22.5976 2.85768 -1.0025
RightForeArm  0.296993 0.307153 2.71758
RightHand  -1.53548 4.95394 -17.4704
LeftUpLeg  0.195881 2.76487 -0.477933
LeftLeg  1.3732 5.22887 -3.75287
LeftFoot  -2.19957 -0.174658 2.29447
LeftToes  1.06248e-005 4.65854e-005 -8.185e-006
570
root  2.69701 40.983 -1.99623 -151.255 -88.7723 151.336
RightUpLeg  -0.00263468 -8.9 -6.98897
RightLeg  3.68923 -8.48801 3.16218
RightFoot  -1.92928 -0.0938526 0.98113
RightToes  0.000482159 0.542163 -0.142577
Spine  6.22373 1.0359 0.65462
Spine1  -1.59577 1.37636 -1.43729
HEad  -8.33524 0.307853 0.647778
LeftShoulder1  0.819564 -2.7956 -5.13942
LeftArm  -20.0677 5.11641 -1.80853
LeftForeArm  3.47475 1.22305 -0.95849
LeftHand  -0.25398 0.0180481 5.50724
RightShoulder  0.673113 1.42079 5.95801
RightArm  -22.7462 2.51742 -0.802404
RightForeArm  0.420848 -0.119079 2.54802
RightHand  -1.47274 4.6901 -17.1962
LeftUpLeg  0.206867 2.78246 -0.398168
LeftLeg  1.46935 5.09053 -3.69645
LeftFoot  -2.21862 -0.172008 2.25194
LeftToes  1.06248e-005 4.65854e-005 -8.185e-006
571
root  2.6631 40.9846 -2.08222 -145.499 -88.865 145.599
RightUpLeg  0.0229988 -8.88895 -6.93016
RightLeg  3.77326 -8.62947 3.16851
RightFoot  -2.04943 -0.0869424 0.90088
RightToes  0.000482159 0.542163 -0.142577
Spine  6.09784 1.00604 0.627859
Spine1  -1.67437 1.36799 -1.57799
HEad  -8.19024 0.352469 0.636701
LeftShoulder1  0.828732 -2.9034 -5.05544
LeftArm  -20.1494 5.57349 -1.70434
LeftForeArm  3.40296 1.09895 -0.865178
LeftHand  -0.25398 0.0180481 5.50724
RightShoulder  0.666525 1.34284 6.05195
RightArm  -22.9117 2.01356 -0.769359
RightForeArm  0.13086 -0.147663 2.44403
RightHand  -1.41159 4.41241 -16.9504
LeftUpLeg  0.185722 2.67722 -0.406216
LeftLeg  1.54796 5.08628 -3.53634
LeftFoot  -2.23274 -0.163241 2.1178
LeftToes  1.06248e-005 4.65854e-005 -8.185e-006
572
root  2.62895 40.9869 -2.16339 -140.636 -88.8538 140.785
RightUpLeg  -0.00446327 -8.89521 -6.90317
RightLeg  3.86264 -8.68868 3.17473
RightFoot  -2.17404 -0.0791909 0.800832
RightToes  0.000482159 0.542163 -0.142577
Spine  5.73568 0.998274 0.499832
Spine1  -1.39398 1.35714 -1.55502
HEad  -8.1137 0.405643 0.624275
LeftShoulder1  0.809379 -2.76462 -5.02883
LeftArm  -20.3375 5.72343 -1.56703
LeftForeArm  3.19741 1.04341 -0.768887
LeftHand  -0.25398 0.0180481 5.50724
RightShoulder  0.66139 1.32508 5.98898
RightArm  -23.0979 1.60834 -0.811613
RightForeArm  -0.470163 -0.0997363 2.38103
RightHand  -1.42622 4.46117 -17.0379
LeftUpLeg  0.184584 2.54738 -0.452363
LeftLeg  1.52558 5.18256 -3.38848
LeftFoot  -2.20927 -0.154072 1.97992
LeftToes  1.06248e-005 4.65854e-005 -8.185e-006
573
root  2.59822 40.9897 -2.23984 -138.518 -88.8011 138.689
RightUpLeg  -0.0188044 -8.88416 -6.85577
RightLeg  3.94199 -8.72533 3.16687
RightFoot  -2.27448 -0.0721654 0.710064
RightToes  0.000482159 0.542163 -0.142577
Spine  5.41695 1.00888 0.341773
Spine1  -1.0919 1.34132 -1.39356
HEad  -7.95892 0.438959 0.443948
LeftShoulder1  0.789903 -2.58289 -5.09854
LeftArm  -20.4212 5.73536 -1.34508
LeftForeArm  3.05287 1.01585 -0.732828
LeftHand  -0.25398 0.0180481 5.50724
RightShoulder  0.633398 1.19107 5.75663
RightArm  -23.3326 1.45392 -0.740327
RightForeArm  -1.08041 -0.0882982 2.33048
RightHand  -1.48279 4.68297 -17.3223
LeftUpLeg  0.238882 2.51502 -0.435181
LeftLeg  1.454 5.22839 -3.33663
LeftFoot  -2.17497 -0.149314 1.9121
LeftToes  1.06248e-005 4.65854e-005 -8.185e-006
574
root  2.5736 40.9932 -2.3105 -137.651 -88.7897 137.78
RightUpLeg  0.0457832 -8.84538 -6.77124
RightLeg  3.98798 -8.77567 3.14902
RightFoot  -2.32146 -0.0673307 0.65029
RightToes  0.000482159 0.542163 -0.142577
Spine  5.44537 0.994931 0.272334
Spine1  -1.20148 1.30982 -1.30653
HEad  -7.67024 0.456786 0.229095
LeftShoulder1  0.787597 -2.58584 -5.04982
LeftArm  -20.3575 5.90675 -1.10416
LeftForeArm  3.28149 0.91066 -0.734284
LeftHand  -0.25398 0.0180481 5.50724
RightShoulder  0.599808 0.988253 5.60152
RightArm  -23.4824 1.4436 -0.642637
RightForeArm  -1.42665 -0.0148854 2.31922
RightHand  -1.4875 4.67799 -17.3827
LeftUpLeg  0.341964 2.58928 -0.329914
LeftLeg  1.42373 5.14229 -3.36178
LeftFoot  -2.16588 -0.147489 1.89029
LeftToes  1.06248e-005 4.65854e-005 -8.185e-006
575
root  2.55353 40.9976 -2.37706 -136.172 -88.8048 136.229
RightUpLeg  0.155087 -8.80344 -6.68626
RightLeg  4.00233 -8.83526 3.13056
RightFoot  -2.34765 -0.0622337 0.57118
RightToes  0.000482159 0.542163 -0.142577
Spine  5.6121 0.936023 0.203113
Spine1  -1.47197 1.23987 -1.27006
HEad  -7.44997 0.47599 0.179411
LeftShoulder1  0.781437 -2.66134 -4.76062
LeftArm  -20.271 6.25347 -1.03735
LeftForeArm  3.78498 0.685237 -0.732322
LeftHand  -0.25398 0.0180481 5.50724
RightShoulder  0.601783 0.977465 5.68532
RightArm  -23.4647 1.41461 -0.728807
RightForeArm  -1.52546 0.162936 2.35925
RightHand  -1.43905 4.46159 -17.1862
LeftUpLeg  0.460016 2.68979 -0.209061
LeftLeg  1.4124 5.00266 -3.41062
LeftFoot  -2.14794 -0.147745 1.90026
LeftToes  1.06248e-005 4.65854e-005 -8.185e-006
